<svg viewBox="0 0 72 72" xmlns="http://www.w3.org/2000/svg"><path d="m52.5733 29.11c0-9.3149-7.1338-16.8923-15.9034-16.8923s-15.9034 7.5773-15.9034 16.8963c.0027.4653.2238 11.6088 12.9612 31.2452a3.4626 3.4626 0 0 0 2.8174 1.9343c1.8394 0 3.0941-2.0266 3.2162-2.2327 12.8187-19.6473 12.8187-30.5074 12.812-30.9508zm-15.9033 6.8035a7.0826 7.0826 0 1 1 7.0826-7.0826 7.0907 7.0907 0 0 1 -7.0826 7.0826z" fill="#d22f27"/><path d="m52.5733 29.11c0-9.3149-7.1338-16.8923-15.9034-16.8923a14.96 14.96 0 0 0 -3.8645.5254c8.3948.4493 15.0989 7.8225 15.0989 16.849.0068.4436.0068 11.3036-12.812 30.9509a5.8543 5.8543 0 0 1 -.5865.7972 2.8549 2.8549 0 0 0 2.0393.9534c1.8394 0 3.0941-2.0266 3.2162-2.2327 12.8187-19.6474 12.8187-30.5075 12.812-30.9509z" fill="#ea5a47"/><g fill="none" stroke="#000" stroke-linecap="round" stroke-linejoin="round" stroke-width="2"><path d="m36.5451 62.2935a3.4628 3.4628 0 0 1 -2.8174-1.9343c-12.7377-19.6364-12.9585-30.7799-12.9612-31.2452 0-9.3191 7.1337-16.8964 15.9034-16.8964s15.9034 7.5773 15.9034 16.8924c.0068.4436.0068 11.3036-12.812 30.9509-.1221.206-1.3768 2.2326-3.2162 2.2326z"/><path d="m36.67 35.9135a7.0826 7.0826 0 1 1 7.0827-7.0826 7.0906 7.0906 0 0 1 -7.0827 7.0826z"/></g></svg>